<?xml version="1.0" encoding="utf-8"?>
<!-- Generator: Adobe Illustrator 24.0.0, SVG Export Plug-In . SVG Version: 6.00 Build 0)  -->
<svg version="1.1" id="Layer_1" xmlns="http://www.w3.org/2000/svg" xmlns:xlink="http://www.w3.org/1999/xlink" x="0px" y="0px"
	 viewBox="0 0 1381.5 293.1" style="enable-background:new 0 0 1381.5 293.1;" xml:space="preserve">
<style type="text/css">
	.st0{fill:#A9C606;}
	.st1{fill:#FFFFFF;}
</style>
<g>
	<circle class="st0" cx="1354.3" cy="244.9" r="27.2"/>
	<g>
		<path class="st1" d="M509.3,45.1v41.5H409v52.7h82.3v39.5H409v91.3h-48.2V45.1H509.3z"/>
		<path class="st1" d="M621.2,146.1h-18c-12.9,0-22.3,3.9-28.3,11.6c-6,7.7-9,18.2-9,31.5v81h-45.3V104.9h41.1l4.2,24.8
			c4.9-8.2,11-14.3,18.3-18.5s17-6.3,29.3-6.3h7.7L621.2,146.1L621.2,146.1z"/>
		<path class="st1" d="M666.6,113.4c12.5-7,27.1-10.5,43.6-10.5c16.7,0,31.5,3.3,44.2,9.8s22.7,15.8,29.9,27.7s10.9,25.9,11.1,42
			c0,5.8-0.4,10.9-1.3,15.4H674.1v1.3c1.1,12,4.9,21.4,11.6,28.3s15.8,10.3,27.3,10.3c9.2,0,16.9-2,23-6c6.1-4,10.1-9.8,12.1-17.5
			h44.7c-1.7,10.9-5.9,20.8-12.5,29.6c-6.6,8.8-15.4,15.7-26.4,20.7c-10.9,5-23.5,7.5-37.6,7.5c-18.4,0-34.4-3.4-47.8-10.3
			s-23.7-16.7-30.9-29.4c-7.2-12.8-10.8-27.6-10.8-44.5c0-17.2,3.5-32.1,10.4-44.8C644.3,130.2,654,120.4,666.6,113.4z M737.6,144.9
			c-6.8-5.5-15.3-8.2-25.6-8.2c-9.9,0-18.2,2.8-24.9,8.5s-10.8,13.3-12.1,23H750C748.5,158.2,744.4,150.4,737.6,144.9z"/>
		<path class="st1" d="M981.4,270.2h-23.1c-20.8,0-31-9-30.5-27c-6,9.4-13.4,16.6-22.2,21.5c-8.8,4.9-19.4,7.4-31.8,7.4
			c-18.4,0-33.3-4.2-44.5-12.7c-11.2-8.5-16.9-20.4-16.9-35.8c0-17.6,6.5-31.1,19.4-40.7s31.8-14.3,56.4-14.3h32.8v-8
			c0-7.5-2.8-13.5-8.4-17.8c-5.6-4.4-13.1-6.6-22.5-6.6c-8.4,0-15.2,1.8-20.6,5.5c-5.4,3.6-8.6,8.6-9.6,14.8h-43.7
			c1.5-16.9,9-30.1,22.5-39.4c13.5-9.3,31.4-14,53.7-14c23.4,0,41.4,5.1,54.2,15.4c12.8,10.3,19.1,25.2,19.1,44.7v58.2
			c0,4.1,0.9,6.9,2.6,8.4s4.4,2.2,8,2.2h5.1L981.4,270.2L981.4,270.2z M887.8,198.8c-9.4,0-16.8,1.9-22,5.6s-7.9,9.1-7.9,15.9
			c0,5.8,2.2,10.4,6.6,13.8c4.4,3.4,10.3,5.1,17.8,5.1c11.8,0,21.1-3.4,28-10.1c6.9-6.8,10.4-15.8,10.6-27.2v-3.2L887.8,198.8
			L887.8,198.8z"/>
		<path class="st1" d="M1024.3,104.9l39.9,119l39.2-119h47.6l-59.5,165.3h-56.3l-59.5-165.3H1024.3z"/>
		<path class="st1" d="M1189.3,113.4c12.5-7,27.1-10.5,43.6-10.5c16.7,0,31.5,3.3,44.2,9.8s22.7,15.8,29.9,27.7
			c7.2,11.9,10.9,25.9,11.1,42c0,5.8-0.4,10.9-1.3,15.4h-119.9v1.3c1.1,12,4.9,21.4,11.6,28.3s15.8,10.3,27.3,10.3
			c9.2,0,16.9-2,23-6c6.1-4,10.1-9.8,12.1-17.5h44.7c-1.7,10.9-5.9,20.8-12.5,29.6c-6.6,8.8-15.4,15.7-26.4,20.7
			c-10.9,5-23.5,7.5-37.6,7.5c-18.4,0-34.4-3.4-47.8-10.3s-23.7-16.7-30.9-29.4c-7.2-12.8-10.8-27.6-10.8-44.5
			c0-17.2,3.5-32.1,10.4-44.8C1167,130.2,1176.7,120.4,1189.3,113.4z M1260.3,144.9c-6.8-5.5-15.3-8.2-25.6-8.2
			c-9.9,0-18.2,2.8-24.9,8.5s-10.8,13.3-12.1,23h74.9C1271.2,158.2,1267.1,150.4,1260.3,144.9z"/>
	</g>
	<circle class="st0" cx="146.6" cy="146.6" r="45.1"/>
	<g>
		<circle class="st1" cx="45.1" cy="45.1" r="45.1"/>
		<circle class="st1" cx="146.6" cy="45.1" r="45.1"/>
		<circle class="st1" cx="248" cy="45.1" r="45.1"/>
		<circle class="st1" cx="45.1" cy="146.6" r="45.1"/>
		<circle class="st1" cx="45.1" cy="248" r="45.1"/>
	</g>
</g>
</svg>
